# Apple ModelIO OBJ File: cube
mtllib cube.mtl
g 
v 0 0 0
v 0.84786 1.09874 0.271852
v 0.952825 0.104351 0.285019
v -0.104965 0.994389 -0.0131668
v -0.389759 0.977017 0.945265
v -0.284794 -0.0173713 0.958431
v 0.563066 1.08137 1.23028
v 0.668031 0.08698 1.24345
vn 0 0 -1
vn -1 0 0
vn 0 1 0
vn 1 0 0
vn 0 -1 0
vn 0 0 1
usemtl material_1
f 1//1 2//1 3//1
f 1//1 4//1 2//1
f 1//2 5//2 4//2
f 1//2 6//2 5//2
f 4//3 7//3 2//3
f 4//3 5//3 7//3
f 3//4 2//4 7//4
f 3//4 7//4 8//4
f 1//5 3//5 8//5
f 1//5 8//5 6//5
f 6//6 8//6 7//6
f 6//6 7//6 5//6
s off
